<svg viewBox="0 0 512 512" xmlns="http://www.w3.org/2000/svg"><path d="m512 61h-241v-61h-30v61h-241v330h121v121h30v-61h210v61h30v-121h121zm-482 30h452v210h-68.5l-97.5-130-46.835938 62.445312-73.164062-91.457031-127.210938 159.011719h-38.789062zm346 210h-268.789062l88.789062-110.988281 73.929688 92.414062 46.070312-61.425781zm-15 120h-210v-30h210zm-331-60v-30h452v30zm0 0"/><path d="m406 211c24.8125 0 45-20.1875 45-45s-20.1875-45-45-45-45 20.1875-45 45 20.1875 45 45 45zm0-60c8.269531 0 15 6.730469 15 15s-6.730469 15-15 15-15-6.730469-15-15 6.730469-15 15-15zm0 0"/></svg>