<?xml version="1.0" standalone="no"?><!DOCTYPE svg PUBLIC "-//W3C//DTD SVG 1.1//EN" "http://www.w3.org/Graphics/SVG/1.1/DTD/svg11.dtd"><svg t="1620725921008" class="icon" viewBox="0 0 1024 1024" version="1.1" xmlns="http://www.w3.org/2000/svg" p-id="1683" xmlns:xlink="http://www.w3.org/1999/xlink" width="200" height="200"><defs><style type="text/css"></style></defs><path d="M512 72.021333c59.392 0 116.992 11.562667 171.178667 34.474667 52.437333 22.186667 99.413333 53.888 139.946666 94.293333 40.362667 40.405333 72.192 87.509333 94.293334 139.946667 22.997333 54.272 34.56 111.872 34.56 171.264 0 59.392-11.562667 116.992-34.474667 171.178667a440.448 440.448 0 0 1-94.293333 139.946666 437.717333 437.717333 0 0 1-139.946667 94.293334c-54.272 22.997333-111.872 34.56-171.264 34.56-59.392 0-116.992-11.562667-171.221333-34.474667a440.448 440.448 0 0 1-139.861334-94.293333 437.717333 437.717333 0 0 1-94.293333-139.946667A436.608 436.608 0 0 1 71.936 512c0-59.392 11.605333-116.992 34.56-171.221333a440.448 440.448 0 0 1 94.293333-139.861334 437.717333 437.717333 0 0 1 139.861334-94.293333c54.314667-23.04 111.914667-34.645333 171.306666-34.645333zM512 0C229.205333 0 0 229.205333 0 512s229.205333 512 512 512 512-229.205333 512-512S794.794667 0 512 0z m0 640a39.978667 39.978667 0 0 1-40.021333-40.021333V231.04a39.978667 39.978667 0 1 1 80.042666 0v369.024c0 22.058667-17.92 39.978667-40.021333 39.978667z m-45.013333 109.013333a45.013333 45.013333 0 1 0 90.026666 0 45.013333 45.013333 0 0 0-90.026666 0z" fill="#000000" opacity=".65" p-id="1684"></path></svg>