<svg width="831" height="512" xmlns="http://www.w3.org/2000/svg" class="icon">
 <defs>
  <style type="text/css"/>
 </defs>
 <g>
  <title>background</title>
  <rect fill="none" id="canvas_background" height="514" width="833" y="-1" x="-1"/>
 </g>
 <g>
  <title>Layer 1</title>
  <path stroke="null" id="svg_1" d="m477.000118,249.265878c15.441997,0 27.959863,-12.933295 27.959863,-28.89042s-12.533076,-28.886467 -27.959863,-28.886467s-27.963665,12.933295 -27.963665,28.886467s12.517866,28.89042 27.963665,28.89042zm-61.102547,73.271544l-104.040501,-102.533519a21.366309,22.210326 0 0 0 -5.840657,4.577248l-43.348624,47.286372l-2.281506,-88.054711c-0.277584,-10.601191 7.924433,-19.530383 18.12657,-19.818931l76.723262,-2.150279l18.001086,-19.763593l-95.22628,2.668085c-20.579189,0.592908 -36.804503,18.316898 -36.253139,39.594382l2.783438,107.276782l1.71113,65.92344c0.555167,21.273531 17.662664,38.060727 38.25326,37.479678l66.924192,-1.877542l4.563013,-0.126487l18.001086,-19.763593l44.177572,-48.476141l-2.273901,-2.241191z"/>
  <path stroke="null" id="svg_2" d="m572.156073,152.396337l-109.424553,-13.456355l-24.824769,16.476683l131.225648,16.134909a22.103012,19.493036 0 0 1 18.831496,21.909299l-24.482296,154.827564l-54.466687,-63.208306a26.974236,23.789055 0 0 0 -37.64046,-4.637793l-19.82737,13.146374l29.321977,34.237005l-24.914893,16.59988l-35.855997,23.884434l-24.748163,16.484631l15.397756,1.891679l121.996908,15.00626a43.958181,38.767496 0 0 0 49.514351,-31.633959a10.080415,8.890096 0 0 0 0.292904,-1.367096l27.276153,-172.540197c3.352628,-21.189984 -13.49613,-40.782373 -37.672004,-43.755011z"/>
 </g>
</svg>