<svg width="162" height="100" xmlns="http://www.w3.org/2000/svg">

 <g>
  <title>background</title>
  <rect fill="none" id="canvas_background" height="102" width="164" y="-1" x="-1"/>
 </g>
 <g>
  <title>Layer 1</title>
  <path stroke="null" id="svg_1" d="m60.624999,38.25l0,1.335227l0,26.704545l0,1.335227l1.459821,0l37.955358,0l1.459821,0l0,-1.335227l0,-26.704545l0,-1.335227l-1.459821,0l-37.955358,0l-1.459821,0zm2.919643,2.670455l35.035715,0l0,18.568004l-7.709682,-7.093395l-1.049247,-0.959695l-1.049247,0.959695l-5.565569,5.090554l-8.393973,-7.761008l-1.049247,-0.959695l-1.049247,0.959695l-9.169504,8.386896l0,-17.191051zm29.196429,2.670455c-1.612475,0 -2.919643,1.195603 -2.919643,2.670455c0,1.474852 1.307168,2.670455 2.919643,2.670455c1.612475,0 2.919643,-1.195603 2.919643,-2.670455c0,-1.474852 -1.307168,-2.670455 -2.919643,-2.670455zm-18.977679,8.971058l13.41211,12.392578l-23.63086,0l0,-3.045987l10.21875,-9.346591zm16.058036,2.670455l8.758929,8.011364l0,1.71076l-7.253488,0l-6.067383,-5.591264l4.561942,-4.130859z"/>
 </g>
</svg>