<?xml version="1.0" standalone="no"?><!DOCTYPE svg PUBLIC "-//W3C//DTD SVG 1.1//EN" "http://www.w3.org/Graphics/SVG/1.1/DTD/svg11.dtd"><svg t="1621429165519" class="icon" viewBox="0 0 1024 1024" version="1.1" xmlns="http://www.w3.org/2000/svg" p-id="10815" xmlns:xlink="http://www.w3.org/1999/xlink" width="200" height="200"><defs><style type="text/css"></style></defs><path d="M330.496 413.896l39.208 0 0 39.216-39.208 0 0-39.216Z" p-id="10816"></path><path d="M632.032 293.8 531.072 293.8 531.072 251.424 490.056 251.424 490.056 293.8 388.648 293.8 388.648 335.256 632.032 335.256Z" p-id="10817"></path><path d="M330.496 572.792l39.208 0 0 39.216-39.208 0 0-39.216Z" p-id="10818"></path><path d="M330.496 653.904l39.208 0 0 39.216-39.208 0 0-39.216Z" p-id="10819"></path><path d="M330.496 493.68l39.208 0 0 39.216-39.208 0 0-39.216Z" p-id="10820"></path><path d="M410.28 653.904l279.896 0 0 39.216-279.896 0 0-39.216Z" p-id="10821"></path><path d="M410.28 572.792l279.896 0 0 39.216-279.896 0 0-39.216Z" p-id="10822"></path><path d="M510.336 0C228.488 0 0 228.488 0 510.336c0 281.848 228.48 510.336 510.328 510.336s510.336-228.488 510.336-510.336C1020.664 228.488 792.176 0 510.336 0zM769.52 770.6c0 25.272-20.472 45.736-45.728 45.736L296.888 816.336c-25.264 0-45.744-20.472-45.744-45.736l0-472.64c0-25.256 20.48-45.736 45.744-45.736l126.992 0c16.504-28.496 49.016-47.896 86.448-47.896 37.44 0 69.944 19.4 86.448 47.896l127.016 0c25.256 0 45.728 20.488 45.728 45.744L769.52 770.6z" p-id="10823"></path><path d="M410.28 413.896l279.896 0 0 39.216-279.896 0 0-39.216Z" p-id="10824"></path><path d="M410.28 493.68l279.896 0 0 39.216-279.896 0 0-39.216Z" p-id="10825"></path></svg>