<?xml version="1.0" standalone="no"?><!DOCTYPE svg PUBLIC "-//W3C//DTD SVG 1.1//EN" "http://www.w3.org/Graphics/SVG/1.1/DTD/svg11.dtd"><svg t="1621419266758" class="icon" viewBox="0 0 1024 1024" version="1.1" xmlns="http://www.w3.org/2000/svg" p-id="3463" xmlns:xlink="http://www.w3.org/1999/xlink" width="200" height="200"><defs><style type="text/css"></style></defs><path d="M512 512m-512 0a512 512 0 1 0 1024 0 512 512 0 1 0-1024 0Z" p-id="3464"></path><path d="M471.04 645.12m-143.36 0a143.36 143.36 0 1 0 286.72 0 143.36 143.36 0 1 0-286.72 0Z" fill="#EBBA50" p-id="3465"></path><path d="M522.24 235.52a30.72 30.72 0 0 1 30.72 30.72l61.44 399.36a30.72 30.72 0 0 1-61.44 0l-61.44-399.36a30.72 30.72 0 0 1 30.72-30.72z" fill="#EBBA50" p-id="3466"></path><path d="M522.24 235.52l153.6 20.48a30.72 30.72 0 0 1 0 61.44l-153.6-20.48a30.72 30.72 0 0 1 0-61.44z" fill="#EBBA50" p-id="3467"></path></svg>