<?xml version="1.0" standalone="no"?><!DOCTYPE svg PUBLIC "-//W3C//DTD SVG 1.1//EN" "http://www.w3.org/Graphics/SVG/1.1/DTD/svg11.dtd"><svg t="1621415672864" class="icon" viewBox="0 0 1024 1024" version="1.1" xmlns="http://www.w3.org/2000/svg" p-id="7120" xmlns:xlink="http://www.w3.org/1999/xlink" width="200" height="200"><defs><style type="text/css"></style></defs><path d="M902.66 346.95A425.27 425.27 0 1 0 936 512a422.53 422.53 0 0 0-33.34-165.05zM512 856c-189.68 0-344-154.32-344-344s154.32-344 344-344 344 154.32 344 344-154.32 344-344 344z" p-id="7121"></path><path d="M700 363a40 40 0 0 0-40 40v69.9l-142.09-82a28.39 28.39 0 0 0-42.58 24.59v70.01L311.4 390.86a28.39 28.39 0 0 0-42.58 24.59v192.93A28.39 28.39 0 0 0 311.4 633l163.92-94.64v70.05A28.39 28.39 0 0 0 517.91 633L660 551v55a40 40 0 0 0 80 0V403a40 40 0 0 0-40-40z" p-id="7122"></path></svg>