<svg height="512pt" viewBox="0 0 511 512" width="512pt" xmlns="http://www.w3.org/2000/svg"><path d="m262.5 472h-201.308594c-8.539062 0-13.6875-4.765625-16-7.605469-3.988281-4.90625-5.53125-11.289062-4.234375-17.519531 20.769531-99.765625 108.8125-172.617188 210.453125-174.980469 1.6875.0625 3.382813.105469 5.089844.105469 74.988281 0 136-61.007812 136-136s-61.011719-136-136-136c-74.992188 0-136 61.007812-136 136 0 44.507812 21.492188 84.09375 54.644531 108.917969-30.371093 9.996093-58.875 25.546875-83.816406 46.0625-45.730469 37.617187-77.527344 90.085937-89.53125 147.742187-3.761719 18.066406.746094 36.621094 12.363281 50.910156 11.558594 14.214844 28.703125 22.367188 47.03125 22.367188h201.308594c11.042969 0 20-8.953125 20-20s-8.957031-20-20-20zm-102-336c0-52.933594 43.0625-96 96-96 52.933594 0 96 43.066406 96 96 0 52.175781-41.839844 94.761719-93.730469 95.972656-.746093-.085937-1.5-.140625-2.269531-.140625-1.5625 0-3.121094.023438-4.679688.050781-50.769531-2.445312-91.320312-44.515624-91.320312-95.882812zm352 275.980469c0 11.046875-8.957031 20-20 20h-150c-11.046875 0-20-8.953125-20-20 0-11.042969 8.953125-20 20-20h150c11.042969 0 20 8.957031 20 20zm-170-99.980469h150c11.042969 0 20 8.953125 20 20s-8.957031 20-20 20h-150c-11.046875 0-20-8.953125-20-20s8.953125-20 20-20zm170 180c0 11.046875-8.957031 20-20 20h-150c-11.046875 0-20-8.953125-20-20s8.953125-20 20-20h150c11.042969 0 20 8.953125 20 20zm0 0"/></svg>