<?xml version="1.0" standalone="no"?><!DOCTYPE svg PUBLIC "-//W3C//DTD SVG 1.1//EN" "http://www.w3.org/Graphics/SVG/1.1/DTD/svg11.dtd"><svg t="1621415652966" class="icon" viewBox="0 0 1024 1024" version="1.1" xmlns="http://www.w3.org/2000/svg" p-id="6477" xmlns:xlink="http://www.w3.org/1999/xlink" width="200" height="200"><defs><style type="text/css"></style></defs><path d="M902.66 346.95A425.27 425.27 0 1 0 936 512a422.53 422.53 0 0 0-33.34-165.05zM512 856c-189.68 0-344-154.32-344-344s154.32-344 344-344 344 154.32 344 344-154.32 344-344 344z" p-id="6478"></path><path d="M712.6 390.86L548.68 485.5v-70.05a28.39 28.39 0 0 0-42.58-24.59L364 472.9V403a40 40 0 0 0-80 0v203a40 40 0 0 0 80 0v-55.07l142.09 82a28.39 28.39 0 0 0 42.58-24.59v-70.02L712.6 633a28.39 28.39 0 0 0 42.58-24.59V415.45a28.39 28.39 0 0 0-42.58-24.59z" p-id="6479"></path></svg>