<?xml version="1.0" standalone="no"?><!DOCTYPE svg PUBLIC "-//W3C//DTD SVG 1.1//EN" "http://www.w3.org/Graphics/SVG/1.1/DTD/svg11.dtd"><svg t="1620725938317" class="icon" viewBox="0 0 1024 1024" version="1.1" xmlns="http://www.w3.org/2000/svg" p-id="1947" xmlns:xlink="http://www.w3.org/1999/xlink" width="200" height="200"><defs><style type="text/css"></style></defs><path d="M512 0C229.205333 0 0 229.205333 0 512s229.205333 512 512 512 512-229.205333 512-512S794.794667 0 512 0z m311.082667 823.082667a437.717333 437.717333 0 0 1-139.904 94.293333c-54.186667 23.04-111.786667 34.602667-171.178667 34.602667-59.392 0-116.992-11.562667-171.221333-34.474667a440.448 440.448 0 0 1-139.861334-94.293333 437.717333 437.717333 0 0 1-94.293333-139.946667A436.608 436.608 0 0 1 71.936 512c0-59.392 11.605333-116.992 34.56-171.221333a440.448 440.448 0 0 1 94.293333-139.861334 437.717333 437.717333 0 0 1 139.861334-94.293333c54.314667-23.04 111.914667-34.645333 171.306666-34.645333 59.392 0 116.992 11.605333 171.178667 34.56 52.437333 22.186667 99.413333 53.845333 139.946667 94.293333 40.362667 40.362667 72.192 87.466667 94.293333 139.861333 22.997333 54.314667 34.56 111.914667 34.56 171.306667a437.461333 437.461333 0 0 1-128.853333 311.082667z m-316.288-159.146667c-1.194667 0-2.389333-0.128-3.584-0.256a36.053333 36.053333 0 0 1-32.298667-39.381333c4.906667-49.92 41.472-90.197333 81.792-130.517334 64.512-64.469333 65.578667-84.992 66.688-106.666666a92.586667 92.586667 0 0 0-26.410667-69.12 112.341333 112.341333 0 0 0-81.194666-34.56h-0.170667a107.690667 107.690667 0 0 0-107.306667 107.477333 35.968 35.968 0 1 1-72.021333 0A178.346667 178.346667 0 0 1 384.682667 264.106667a178.261333 178.261333 0 0 1 126.72-52.693334 184.746667 184.746667 0 0 1 133.802666 57.002667c32.085333 33.792 48.512 77.269333 46.08 122.453333-2.474667 46.336-16.682667 82.816-87.68 153.813334-36.010667 36.010667-58.709333 63.018667-61.013333 86.698666a36.010667 36.010667 0 0 1-35.797333 32.512z m-44.586667 105.258667a43.306667 43.306667 0 1 0 86.613333 0 43.306667 43.306667 0 0 0-86.613333 0z" fill="#000000" opacity=".65" p-id="1948"></path></svg>